<?xml version="1.0" encoding="UTF-8" standalone="no"?>
<svg
   xmlns:dc="http://purl.org/dc/elements/1.1/"
   xmlns:cc="http://creativecommons.org/ns#"
   xmlns:rdf="http://www.w3.org/1999/02/22-rdf-syntax-ns#"
   xmlns:svg="http://www.w3.org/2000/svg"
   xmlns="http://www.w3.org/2000/svg"
   xmlns:sodipodi="http://sodipodi.sourceforge.net/DTD/sodipodi-0.dtd"
   xmlns:inkscape="http://www.inkscape.org/namespaces/inkscape"
   width="74mm"
   height="105mm"
   version="1.1"
   id="svg357"
   sodipodi:docname="ifa.svg"
   inkscape:version="0.92.2 5c3e80d, 2017-08-06">
  <metadata
     id="metadata363">
    <rdf:RDF>
      <cc:Work
         rdf:about="">
        <dc:format>image/svg+xml</dc:format>
        <dc:type
           rdf:resource="http://purl.org/dc/dcmitype/StillImage" />
        <dc:title></dc:title>
      </cc:Work>
    </rdf:RDF>
  </metadata>
  <defs
     id="defs361" />
  <sodipodi:namedview
     pagecolor="#ffffff"
     bordercolor="#666666"
     borderopacity="1"
     objecttolerance="10"
     gridtolerance="10"
     guidetolerance="10"
     inkscape:pageopacity="0"
     inkscape:pageshadow="2"
     inkscape:window-width="1206"
     inkscape:window-height="748"
     id="namedview359"
     showgrid="false"
     inkscape:zoom="1.3481151"
     inkscape:cx="139.84252"
     inkscape:cy="198.4252"
     inkscape:window-x="96"
     inkscape:window-y="24"
     inkscape:window-maximized="0"
     inkscape:current-layer="svg357"
     units="mm"
     inkscape:pagecheckerboard="true" />
  <rect
     style="opacity:1;fill:#ffffff;fill-opacity:1;fill-rule:nonzero;stroke:none;stroke-width:3.54330707;stroke-linejoin:round;stroke-miterlimit:4;stroke-dasharray:none;stroke-opacity:1"
     id="rect989"
     width="279.64972"
     height="397.59216"
     x="0"
     y="0" />
  <g
     id="g5251"
     transform="matrix(1.4388027,0,0,1.4388027,30.549656,-531.77383)">
    <path
       style="fill:#00328a;fill-opacity:1"
       d="m 21.45,549.25041 q -0.55,-0.95 -1.5,-1.45 -0.9,-0.45 -1.9,-0.45 l -1.9,0.4 -1.9,1.5 q -0.35,0.25 -0.65,1 -0.35,0.75 -0.35,1.6 0.05,1.05 0.35,1.8 l 0.55,1 q 0.85,0.95 1.85,1.45 l 2.05,0.45 1.95,-0.45 1.45,-1.45 v 1.7 h 1.1 v -8.8 h -1.1 z"
       id="path90"
       inkscape:connector-curvature="0" />
    <path
       style="fill:#00328a;fill-opacity:1"
       d="m 37.35,547.80041 q -0.95,-0.45 -2,-0.45 l -1.85,0.4 q -0.9,0.45 -1.95,1.5 -0.25,0.25 -0.55,1 -0.3,0.75 -0.35,1.6 0.05,1.05 0.35,1.8 l 0.55,1 q 0.85,0.95 1.85,1.45 l 2.05,0.45 1.9,-0.45 q 0.95,-0.5 1.5,-1.45 v 1.7 h 1.1 v -8.8 h -1.1 v 1.7 q -0.55,-0.95 -1.5,-1.45 z"
       id="path100"
       inkscape:connector-curvature="0" />
    <path
       style="fill:#00328a;fill-opacity:1"
       d="m 87.4,547.80041 q -0.95,-0.45 -2,-0.45 -1.95,0.05 -3.25,1.35 -1.3,1.3 -1.35,3.25 0.05,2 1.4,3.25 1.3,1.3 3.3,1.35 1.4,-0.05 2.55,-0.9 1.15,-0.85 1.65,-2.2 h -1.2 l -1.35,1.45 q -0.85,0.55 -1.85,0.55 -1.25,-0.05 -2.2,-0.9 -1,-0.9 -1.1,-2.2 h 8 l -0.25,-1.75 -0.85,-1.55 z"
       id="path122"
       inkscape:connector-curvature="0" />
    <path
       style="fill:#00328a;fill-opacity:1"
       d="m 71.95,544.45041 h -3.3 v 11.9 h 3.3 l 2.6,-0.3 q 1.15,-0.3 2.2,-1.2 l 1.45,-2.05 q 0.55,-1.15 0.55,-2.45 0,-1.3 -0.6,-2.45 -0.6,-1.2 -1.6,-2.05 -1.05,-0.8 -2.2,-1.1 z"
       id="path116"
       inkscape:connector-curvature="0" />
    <path
       style="fill:#00328a;fill-opacity:1"
       d="m 130,548.70041 q -1.3,-1.3 -3.25,-1.35 -1.95,0.05 -3.25,1.35 -1.3,1.35 -1.35,3.35 0.05,1.9 1.35,3.2 1.3,1.25 3.25,1.3 1.95,-0.05 3.25,-1.4 1.3,-1.35 1.35,-3.3 -0.05,-1.85 -1.35,-3.15 z"
       id="path146"
       inkscape:connector-curvature="0" />
    <path
       style="fill:#00328a;fill-opacity:1"
       d="m 149.3,548.70041 q -1.3,-1.3 -3.25,-1.35 -1.95,0.05 -3.25,1.35 -1.3,1.35 -1.35,3.35 0.05,1.9 1.4,3.2 1.35,1.25 3.2,1.3 2,-0.05 3.3,-1.4 1.25,-1.35 1.3,-3.3 -0.05,-1.85 -1.35,-3.15 z"
       id="path160"
       inkscape:connector-curvature="0" />
    <path
       style="fill:#00328a;fill-opacity:1"
       d="m 128.8,568.00041 q 0.05,1.9 1.35,3.2 1.3,1.25 3.25,1.3 1.95,-0.05 3.25,-1.35 1.3,-1.3 1.35,-3.25 -0.05,-1.9 -1.4,-3.2 -1.35,-1.25 -3.2,-1.3 -2,0.05 -3.25,1.35 -1.3,1.25 -1.35,3.25 z"
       id="path228"
       inkscape:connector-curvature="0" />
    <path
       style="fill:#00328a;fill-opacity:1"
       d="m 58.2,560.60041 -4.75,-0.1 v 11.8 h 1.2 v -4.7 l 3.8,-0.15 q 0.8,-0.15 1.5,-0.65 1.3,-1.1 1.3,-2.8 0,-1.8 -1.5,-2.9 -0.75,-0.45 -1.55,-0.5 z"
       id="path188"
       inkscape:connector-curvature="0" />
    <path
       style="fill:#00328a;fill-opacity:1"
       d="m 23.55,565.15041 q -1.45,-1.7 -3.6,-1.7 -1.9,0.05 -3.2,1.3 -1.25,1.3 -1.3,3.3 0.05,1.9 1.3,3.2 1.3,1.25 3.3,1.3 1.4,-0.05 2.55,-0.85 1.15,-0.85 1.65,-2.15 h -1.2 q -0.4,0.9 -1.3,1.4 -0.9,0.5 -1.9,0.5 -1.25,-0.05 -2.2,-0.9 -1,-0.85 -1.1,-2.1 h 8 l -0.2,-1.75 q -0.2,-0.8 -0.8,-1.55 z"
       id="path172"
       inkscape:connector-curvature="0" />
    <path
       style="fill:#00328a;fill-opacity:1"
       d="m 128.85,596.80041 q -1.3,-1.3 -3.25,-1.35 -1.95,0.05 -3.25,1.35 -1.3,1.35 -1.35,3.35 0.05,1.9 1.4,3.2 1.35,1.25 3.2,1.3 2,-0.05 3.3,-1.35 1.25,-1.3 1.3,-3.25 -0.05,-1.95 -1.35,-3.25 z"
       id="path340"
       inkscape:connector-curvature="0" />
    <path
       style="fill:#00328a;fill-opacity:1"
       d="m 0.8,397.85041 0.1,106.3 h 19.2 v -106.1 z"
       id="path2"
       inkscape:connector-curvature="0" />
    <path
       d="M 0,397.85041 Z"
       id="path4"
       inkscape:connector-curvature="0" />
    <path
       style="fill:#00328a;fill-opacity:1"
       d="m 116.05,397.85041 h -87.9 l 0.3,106.3 h 16.6 v -52.4 h 35.8 l 9.6,-17.2 h -44.8 l -0.2,-22.8 60.3,0.4 z"
       id="path6"
       inkscape:connector-curvature="0" />
    <path
       d="M 0,397.85041 Z"
       id="path8"
       inkscape:connector-curvature="0" />
    <path
       style="fill:#00328a;fill-opacity:1"
       d="m 123.35,397.85041 -73.2,106.3 21.9,-0.5 36.3,-51.9 h 24.3 v 51.9 h 18 l 0.5,-105.6 z"
       id="path12"
       inkscape:connector-curvature="0" />
    <path
       d="M 0,397.85041 Z"
       id="path14"
       inkscape:connector-curvature="0" />
    <path
       style="fill:#00328a;fill-opacity:1"
       d="m 0.8,519.65041 h 149.8 v -10.7 H 0.8 Z"
       id="path16"
       inkscape:connector-curvature="0" />
    <path
       d="M 0,397.85041 Z"
       id="path18"
       inkscape:connector-curvature="0" />
    <path
       style="fill:#00328a;fill-opacity:1"
       d="M 150.6,609.50041 H 0.8 v 10.6 h 149.8 z"
       id="path20"
       inkscape:connector-curvature="0" />
    <path
       d="M 0,397.85041 Z"
       id="path22"
       inkscape:connector-curvature="0" />
    <path
       style="fill:#00328a;fill-opacity:1"
       d="m 13.4,529.35041 h 3.3 q -0.95,-2.2 -2.95,-3.45 -1.95,-1.25 -4.35,-1.25 -3.3,0.1 -5.55,2.35 -2.25,2.25 -2.35,5.65 0.1,3.4 2.35,5.65 2.25,2.25 5.65,2.35 2.25,0 4.2,-1.2 1.95,-1.2 2.9,-3.3 h -3.3 q -1.55,1.7 -3.9,1.8 -2.1,-0.05 -3.5,-1.6 -1.45,-1.5 -1.5,-3.6 0.05,-2.25 1.45,-3.75 1.4,-1.5 3.55,-1.55 1.2,0 2.25,0.5 1.05,0.5 1.75,1.4 z"
       id="path24"
       inkscape:connector-curvature="0" />
    <path
       d="M 0,397.85041 Z"
       id="path26"
       inkscape:connector-curvature="0" />
    <path
       style="fill:#00328a;fill-opacity:1"
       d="m 21.8,530.25041 q -1.75,1.7 -1.8,4.3 0.05,2.6 1.8,4.35 1.75,1.7 4.3,1.75 2.6,-0.05 4.35,-1.75 1.7,-1.75 1.75,-4.35 -0.05,-2.55 -1.7,-4.3 -1.7,-1.75 -4.3,-1.8 -2.6,0.05 -4.4,1.8 z"
       id="path28"
       inkscape:connector-curvature="0" />
    <path
       style="fill:#ffffff"
       d="m 26.1,531.15041 q 1.45,0.05 2.4,1 0.95,0.95 1,2.4 -0.05,1.5 -1,2.45 -0.95,0.9 -2.4,0.95 -1.45,-0.05 -2.35,-1 -0.9,-0.95 -0.95,-2.4 -0.1,-1.35 0.9,-2.4 0.95,-0.95 2.4,-1 z"
       id="path30"
       inkscape:connector-curvature="0" />
    <path
       d="M 0,397.85041 Z"
       id="path32"
       inkscape:connector-curvature="0" />
    <path
       style="fill:#00328a;fill-opacity:1"
       d="m 41.15,528.45041 q -1.65,-0.05 -2.5,1.4 v -1.1 h -2.5 v 11.5 h 2.7 v -6.2 l 0.1,-1.3 q 0.1,-0.65 0.7,-1.1 0.75,-0.6 1.7,-0.6 v -2.6 z"
       id="path34"
       inkscape:connector-curvature="0" />
    <path
       d="M 0,397.85041 Z"
       id="path36"
       inkscape:connector-curvature="0" />
    <path
       style="fill:#00328a;fill-opacity:1"
       d="m 51.3,528.45041 q -2.4,0 -3.8,1.8 v -1.5 H 45 v 15.4 h 2.7 v -5.1 q 1.45,1.65 3.6,1.6 2.5,-0.05 4.1,-1.8 1.55,-1.75 1.6,-4.3 0,-1.2 -0.4,-2.35 -0.4,-1.1 -1.2,-1.95 -1.65,-1.9 -4.1,-1.8 z"
       id="path38"
       inkscape:connector-curvature="0" />
    <path
       style="fill:#ffffff"
       d="m 53.3,532.15041 q 0.95,0.95 1,2.4 -0.05,1.45 -1,2.4 -0.95,0.95 -2.4,1 l -1.2,-0.2 q -0.6,-0.25 -1,-0.7 -1.15,-0.95 -1.1,-2.5 0.05,-1.45 0.95,-2.4 0.95,-0.95 2.45,-1 1.4,0.05 2.3,1 z"
       id="path40"
       inkscape:connector-curvature="0" />
    <path
       d="M 0,397.85041 Z"
       id="path42"
       inkscape:connector-curvature="0" />
    <path
       style="fill:#00328a;fill-opacity:1"
       d="m 62.3,530.25041 q -1.75,1.7 -1.8,4.3 0.05,2.6 1.8,4.35 1.7,1.7 4.3,1.75 2.55,-0.05 4.3,-1.75 1.75,-1.75 1.8,-4.35 -0.05,-2.55 -1.7,-4.3 -1.7,-1.75 -4.3,-1.8 -2.7,0.05 -4.4,1.8 z"
       id="path44"
       inkscape:connector-curvature="0" />
    <path
       style="fill:#ffffff"
       d="m 66.6,531.15041 q 1.45,0.05 2.35,1 0.9,0.95 0.95,2.4 -0.05,1.5 -0.95,2.45 -0.9,0.9 -2.35,0.95 -1.45,-0.05 -2.4,-1 -0.95,-0.95 -1,-2.4 0.05,-1.35 1,-2.4 0.95,-0.95 2.4,-1 z"
       id="path46"
       inkscape:connector-curvature="0" />
    <path
       d="M 0,397.85041 Z"
       id="path48"
       inkscape:connector-curvature="0" />
    <path
       style="fill:#00328a;fill-opacity:1"
       d="m 79.1,529.85041 v -1.1 h -2.6 v 11.5 h 2.8 v -6.2 l 0.1,-1.3 q 0.15,-0.65 0.7,-1.1 0.3,-0.3 0.8,-0.45 l 0.9,-0.15 v -2.6 h -0.2 q -0.9,0 -1.45,0.35 -0.6,0.3 -1.05,1.05 z"
       id="path50"
       inkscape:connector-curvature="0" />
    <path
       d="M 0,397.85041 Z"
       id="path52"
       inkscape:connector-curvature="0" />
    <path
       style="fill:#00328a;fill-opacity:1"
       d="m 94.6,530.45041 q -1.45,-1.95 -3.9,-2 -2.5,-0.05 -4.3,2 -1.45,1.75 -1.4,4.1 0,2.5 1.4,4.2 1.5,1.85 4.2,1.9 l 2.25,-0.5 1.75,-1.4 v 1.5 h 2.5 v -11.5 h -2.5 z"
       id="path54"
       inkscape:connector-curvature="0" />
    <path
       style="fill:#ffffff"
       d="m 93.6,532.10041 q 0.85,0.95 0.9,2.45 0,1.5 -0.95,2.45 -0.9,0.9 -2.45,0.95 -1.4,-0.05 -2.35,-0.95 -1,-0.9 -1.05,-2.35 0,-1.5 0.9,-2.5 0.9,-0.95 2.4,-1 h 0.4 q 1.35,0.05 2.2,0.95 z"
       id="path56"
       inkscape:connector-curvature="0" />
    <path
       d="M 0,397.85041 Z"
       id="path58"
       inkscape:connector-curvature="0" />
    <path
       style="fill:#00328a;fill-opacity:1"
       d="m 102.75,530.15041 q -1.75,1.7 -1.8,4.3 0.05,2.65 1.9,4.5 0.85,0.85 1.95,1.25 l 2.35,0.45 q 1.95,-0.05 3.55,-1.15 1.55,-1.1 2.15,-2.95 h -3.1 l -1.05,1.05 -1.45,0.35 q -1.55,0 -2.5,-0.95 -0.95,-0.95 -1,-2.55 0.05,-1.45 0.95,-2.35 0.9,-0.9 2.35,-0.95 1.8,-0.1 2.7,1.5 h 3.1 q -0.6,-1.9 -2.15,-3.05 -1.6,-1.1 -3.55,-1.15 -2.6,0.05 -4.4,1.7 z"
       id="path60"
       inkscape:connector-curvature="0" />
    <path
       d="M 0,397.85041 Z"
       id="path62"
       inkscape:connector-curvature="0" />
    <path
       style="fill:#00328a;fill-opacity:1"
       d="m 117,524.95041 v 2.5 h 2.8 v -2.5 z"
       id="path64"
       inkscape:connector-curvature="0" />
    <path
       style="fill:#00328a;fill-opacity:1"
       d="m 117,528.75041 v 11.5 h 2.8 v -11.5 z"
       id="path66"
       inkscape:connector-curvature="0" />
    <path
       d="M 0,397.85041 Z"
       id="path68"
       inkscape:connector-curvature="0" />
    <path
       style="fill:#00328a;fill-opacity:1"
       d="m 131.7,522.95041 -4.7,2.7 1,1.9 4.8,-2.5 z"
       id="path70"
       inkscape:connector-curvature="0" />
    <path
       style="fill:#00328a;fill-opacity:1"
       d="m 125.6,530.25041 q -1.75,1.7 -1.8,4.3 0.05,2.6 1.8,4.35 1.7,1.7 4.3,1.75 2.55,-0.05 4.3,-1.75 1.75,-1.75 1.8,-4.35 -0.05,-2.55 -1.7,-4.3 -1.7,-1.75 -4.3,-1.8 -2.7,0.05 -4.4,1.8 z"
       id="path72"
       inkscape:connector-curvature="0" />
    <path
       style="fill:#ffffff"
       d="m 129.9,531.15041 q 1.45,0.05 2.35,1 0.9,0.95 0.95,2.4 -0.05,1.5 -0.95,2.45 -0.9,0.9 -2.35,0.95 -1.45,-0.05 -2.4,-1 -0.95,-0.95 -1,-2.4 0.05,-1.35 1,-2.4 1,-0.95 2.4,-1 z"
       id="path74"
       inkscape:connector-curvature="0" />
    <path
       d="M 0,397.85041 Z"
       id="path76"
       inkscape:connector-curvature="0" />
    <path
       style="fill:#00328a;fill-opacity:1"
       d="m 139.8,540.25041 h 2.8 l 0.05,-6.7 q 0.1,-0.8 0.45,-1.4 0.25,-0.45 0.8,-0.75 l 1.1,-0.25 q 1.15,0 1.8,0.9 l 0.45,1.35 0.05,6.85 h 2.8 l -0.15,-8.05 q -0.2,-1.05 -0.85,-1.95 l -0.2,-0.4 q -1.45,-1.35 -3.3,-1.4 l -1.8,0.35 q -0.85,0.35 -1.4,1.05 v -1.1 h -2.6 z"
       id="path78"
       inkscape:connector-curvature="0" />
    <path
       d="M 0,397.85041 Z"
       id="path80"
       inkscape:connector-curvature="0" />
    <path
       style="fill:#00328a;fill-opacity:1"
       d="m 10.8,550.25041 -0.8,-1.2 q -1.65,-1.75 -3.5,-1.7 -1,0 -2,0.45 -1,0.4 -1.5,1.25 v -1.5 H 1.8 v 11.9 H 3 v -4.8 q 0.5,0.95 1.4,1.45 0.9,0.45 1.9,0.45 2,-0.05 3.4,-1.3 1.35,-1.25 1.4,-3.3 z"
       id="path82"
       inkscape:connector-curvature="0" />
    <path
       style="fill:#ffffff"
       d="m 9.9,551.95041 q -0.05,1.55 -1.05,2.5 -1,0.95 -2.45,1 -1.55,-0.05 -2.5,-1.1 -1,-1.05 -1,-2.5 0.05,-1.45 1.05,-2.35 1,-0.9 2.55,-0.95 1.45,0.05 2.4,1 0.95,0.95 1,2.4 z"
       id="path84"
       inkscape:connector-curvature="0" />
    <path
       d="M 0,397.85041 Z"
       id="path86"
       inkscape:connector-curvature="0" />
    <path
       style="fill:#ffffff"
       d="m 20.4,554.40041 q -0.95,1 -2.35,1.05 -1.45,-0.05 -2.5,-1 -1.05,-0.95 -1.1,-2.5 0.05,-1.45 1.05,-2.4 1,-0.95 2.55,-1 1.45,0.05 2.4,1 0.95,0.95 1,2.5 -0.05,1.4 -1.05,2.35 z"
       id="path88"
       inkscape:connector-curvature="0" />
    <path
       d="M 0,397.85041 Z"
       id="path92"
       inkscape:connector-curvature="0" />
    <path
       style="fill:#00328a;fill-opacity:1"
       d="m 29,547.35041 -1.5,0.35 q -0.7,0.35 -1,1.15 v -1.3 h -1.2 v 8.8 h 1.2 v -4.9 q 0,-0.75 0.15,-1.25 0.15,-0.55 0.75,-1.05 0.75,-0.6 1.6,-0.6 z"
       id="path94"
       inkscape:connector-curvature="0" />
    <path
       d="M 0,397.85041 Z"
       id="path96"
       inkscape:connector-curvature="0" />
    <path
       style="fill:#ffffff"
       d="m 38.85,552.05041 q -0.05,1.4 -1.05,2.35 -0.95,1 -2.35,1.05 -1.45,-0.05 -2.5,-1 -1.05,-0.95 -1.1,-2.5 0.05,-1.45 1.05,-2.4 1,-0.95 2.45,-1 1.55,0.05 2.5,1 0.95,0.95 1,2.5 z"
       id="path98"
       inkscape:connector-curvature="0" />
    <path
       d="M 0,397.85041 Z"
       id="path102"
       inkscape:connector-curvature="0" />
    <path
       style="fill:#00328a;fill-opacity:1"
       d="m 56.55,550.60041 q -0.2,-0.8 -0.8,-1.55 -1.4,-1.7 -3.5,-1.7 -1.95,0.05 -3.25,1.35 -1.3,1.3 -1.35,3.25 0.05,2 1.35,3.25 1.3,1.3 3.25,1.35 1.45,-0.05 2.65,-0.9 1.15,-0.85 1.65,-2.2 h -1.2 q -0.45,0.9 -1.35,1.45 -0.85,0.55 -1.85,0.55 -1.25,-0.05 -2.2,-0.9 -1,-0.9 -1.1,-2.2 h 8 z"
       id="path104"
       inkscape:connector-curvature="0" />
    <path
       style="fill:#ffffff"
       d="m 55.55,551.25041 h -6.7 q 0.25,-1.2 1.2,-1.95 0.95,-0.75 2.2,-0.75 1.25,0.05 2.15,0.8 0.95,0.75 1.15,1.9 z"
       id="path106"
       inkscape:connector-curvature="0" />
    <path
       d="M 0,397.85041 Z"
       id="path108"
       inkscape:connector-curvature="0" />
    <path
       style="fill:#00328a;fill-opacity:1"
       d="m 59.25,544.45041 v 11.9 h 1.2 v -11.9 z"
       id="path110"
       inkscape:connector-curvature="0" />
    <path
       d="M 0,397.85041 Z"
       id="path112"
       inkscape:connector-curvature="0" />
    <path
       style="fill:#ffffff"
       d="m 73.65,545.70041 q 1.05,0.25 2,0.95 1.9,1.5 1.9,3.7 0,1.15 -0.5,2.15 -0.45,0.95 -1.3,1.65 -1.05,0.8 -2.1,0.95 l -3.8,0.15 v -9.7 z"
       id="path114"
       inkscape:connector-curvature="0" />
    <path
       d="M 0,397.85041 Z"
       id="path118"
       inkscape:connector-curvature="0" />
    <path
       style="fill:#ffffff"
       d="M 88.8,551.25041 H 82 q 0.25,-1.2 1.2,-1.95 0.95,-0.75 2.2,-0.75 1.25,0.05 2.2,0.8 0.95,0.75 1.2,1.9 z"
       id="path120"
       inkscape:connector-curvature="0" />
    <path
       d="M 0,397.85041 Z"
       id="path124"
       inkscape:connector-curvature="0" />
    <path
       style="fill:#00328a;fill-opacity:1"
       d="m 96.3,548.05041 q -0.7,-0.65 -1.8,-0.7 -1,0 -1.75,0.7 -0.7,0.7 -0.75,1.8 0.05,0.95 0.7,1.6 l 0.75,0.5 0.85,0.3 q 0.7,0.2 1.2,0.55 0.5,0.35 0.5,1.15 0,0.7 -0.45,1.1 -0.45,0.4 -1.05,0.4 -0.7,0 -1.15,-0.5 -0.5,-0.5 -0.45,-1.2 h -1.2 q -0.05,1.15 0.75,1.95 0.8,0.8 1.95,0.85 1.25,0 2,-0.75 0.8,-0.75 0.8,-2.05 0,-1.2 -0.7,-1.75 -0.7,-0.6 -1.8,-0.85 l -1,-0.45 q -0.45,-0.3 -0.5,-0.95 0.1,-1.15 1.2,-1.2 0.6,0 1,0.3 0.4,0.3 0.4,0.9 H 97 q 0,-1 -0.7,-1.7 z"
       id="path126"
       inkscape:connector-curvature="0" />
    <path
       d="M 0,397.85041 Z"
       id="path128"
       inkscape:connector-curvature="0" />
    <path
       style="fill:#00328a;fill-opacity:1"
       d="m 107.25,549.25041 q -0.5,-0.95 -1.4,-1.45 -0.95,-0.45 -2,-0.45 l -1.85,0.4 q -0.95,0.45 -1.95,1.5 l -0.55,1 q -0.3,0.75 -0.35,1.6 0,1.05 0.3,1.8 l 0.6,1 1.8,1.45 2,0.45 2,-0.45 q 0.9,-0.5 1.4,-1.45 v 1.7 h 1.2 v -8.8 h -1.2 z"
       id="path130"
       inkscape:connector-curvature="0" />
    <path
       style="fill:#ffffff"
       d="m 106.3,549.55041 q 0.9,0.95 0.95,2.5 -0.05,1.4 -1,2.35 -0.95,1 -2.4,1.05 -1.4,-0.05 -2.45,-1 -1,-0.95 -1.05,-2.5 0.05,-1.45 1.05,-2.4 1,-0.95 2.45,-1 1.5,0.05 2.45,1 z"
       id="path132"
       inkscape:connector-curvature="0" />
    <path
       d="M 0,397.85041 Z"
       id="path134"
       inkscape:connector-curvature="0" />
    <path
       style="fill:#00328a;fill-opacity:1"
       d="m 114.05,548.70041 0.9,-0.15 v -1.2 l -1.55,0.35 q -0.65,0.35 -1.05,1.15 v -1.3 h -1.1 v 8.8 h 1.2 v -4.9 q 0,-0.75 0.15,-1.25 0.15,-0.55 0.75,-1.05 z"
       id="path136"
       inkscape:connector-curvature="0" />
    <path
       d="M 0,397.85041 Z"
       id="path138"
       inkscape:connector-curvature="0" />
    <path
       style="fill:#00328a;fill-opacity:1"
       d="m 120.5,547.35041 -1.5,0.35 q -0.7,0.35 -1.1,1.15 v -1.3 h -1.1 v 8.8 h 1.2 v -4.9 q 0,-0.75 0.15,-1.25 0.15,-0.55 0.75,-1.05 0.75,-0.6 1.6,-0.6 z"
       id="path140"
       inkscape:connector-curvature="0" />
    <path
       d="M 0,397.85041 Z"
       id="path142"
       inkscape:connector-curvature="0" />
    <path
       style="fill:#ffffff"
       d="m 129.15,549.45041 q 1,1.05 1,2.4 -0.05,1.55 -0.95,2.55 -0.95,1 -2.45,1.05 -1.45,-0.05 -2.4,-1.05 -0.95,-0.95 -1,-2.35 0.05,-1.55 1,-2.5 0.95,-0.95 2.4,-1 1.35,0 2.4,0.9 z"
       id="path144"
       inkscape:connector-curvature="0" />
    <path
       d="M 0,397.85041 Z"
       id="path148"
       inkscape:connector-curvature="0" />
    <path
       style="fill:#00328a;fill-opacity:1"
       d="m 133.8,544.45041 v 11.9 h 1.1 v -11.9 z"
       id="path150"
       inkscape:connector-curvature="0" />
    <path
       d="M 0,397.85041 Z"
       id="path152"
       inkscape:connector-curvature="0" />
    <path
       style="fill:#00328a;fill-opacity:1"
       d="m 137.8,544.45041 v 11.9 h 1.2 v -11.9 z"
       id="path154"
       inkscape:connector-curvature="0" />
    <path
       d="M 0,397.85041 Z"
       id="path156"
       inkscape:connector-curvature="0" />
    <path
       style="fill:#ffffff"
       d="m 149.45,551.85041 q -0.05,1.55 -0.95,2.55 -0.95,1 -2.45,1.05 -1.4,-0.05 -2.35,-1.05 -1,-0.95 -1.05,-2.35 0.05,-1.55 1,-2.5 0.95,-0.95 2.4,-1 1.4,0 2.4,0.9 1.05,1.05 1,2.4 z"
       id="path158"
       inkscape:connector-curvature="0" />
    <path
       d="M 0,397.85041 Z"
       id="path162"
       inkscape:connector-curvature="0" />
    <path
       style="fill:#00328a;fill-opacity:1"
       d="m 4.55,570.70041 1.85,1.4 1.85,0.4 q 2.25,0.05 3.6,-1.8 v 1.6 h 1.1 v -11.8 h -1.2 v 4.6 q -0.55,-0.9 -1.5,-1.3 l -1.9,-0.4 q -2,0.05 -3.35,1.3 -1.3,1.2 -1.35,3.2 0,1 0.3,1.8 z"
       id="path164"
       inkscape:connector-curvature="0" />
    <path
       style="fill:#ffffff"
       d="m 4.85,567.90041 q 0.05,-1.45 1,-2.4 0.95,-0.95 2.4,-1 1.45,0.05 2.45,1 1,0.95 1.05,2.4 -0.05,1.45 -1,2.45 -0.95,1 -2.5,1.05 -1.45,-0.05 -2.4,-1.05 -0.95,-1 -1,-2.45 z"
       id="path166"
       inkscape:connector-curvature="0" />
    <path
       d="M 0,397.85041 Z"
       id="path168"
       inkscape:connector-curvature="0" />
    <path
       style="fill:#ffffff"
       d="m 23.35,567.35041 h -6.8 q 0.25,-1.25 1.2,-2 0.95,-0.8 2.2,-0.8 1.3,0 2.2,0.8 0.95,0.75 1.2,2 z"
       id="path170"
       inkscape:connector-curvature="0" />
    <path
       d="M 0,397.85041 Z"
       id="path174"
       inkscape:connector-curvature="0" />
    <path
       style="fill:#00328a;fill-opacity:1"
       d="m 32.25,560.50041 v 11.8 h 1.2 v -11.8 z"
       id="path176"
       inkscape:connector-curvature="0" />
    <path
       d="M 0,397.85041 Z"
       id="path178"
       inkscape:connector-curvature="0" />
    <path
       style="fill:#00328a;fill-opacity:1"
       d="m 36.8,565.25041 q -0.3,0.25 -0.65,1 -0.3,0.75 -0.35,1.7 0.05,1 0.35,1.75 l 0.55,1.05 q 0.85,0.95 1.9,1.4 l 2,0.4 q 1.05,0 1.95,-0.45 0.9,-0.45 1.45,-1.35 v 1.6 h 1.1 v -8.8 H 44 v 1.7 q -0.55,-0.9 -1.5,-1.35 -0.95,-0.45 -2,-0.45 l -1.8,0.4 q -0.95,0.35 -1.9,1.4 z"
       id="path180"
       inkscape:connector-curvature="0" />
    <path
       style="fill:#ffffff"
       d="m 37,568.05041 q 0.05,-1.55 1.05,-2.5 1,-0.95 2.45,-1 1.55,0.05 2.5,1.05 0.95,1 1,2.45 -0.05,1.4 -1,2.4 -1,0.95 -2.4,1 -1.45,-0.05 -2.5,-1 -1.05,-0.95 -1.1,-2.4 z"
       id="path182"
       inkscape:connector-curvature="0" />
    <path
       d="M 0,397.85041 Z"
       id="path184"
       inkscape:connector-curvature="0" />
    <path
       style="fill:#ffffff"
       d="m 60.05,564.00041 -0.25,1.15 -0.75,0.85 q -1.15,0.55 -2.4,0.5 h -2 v -4.9 h 2.5 l 1.5,0.2 q 1.35,0.65 1.4,2.2 z"
       id="path186"
       inkscape:connector-curvature="0" />
    <path
       d="M 0,397.85041 Z"
       id="path190"
       inkscape:connector-curvature="0" />
    <path
       style="fill:#00328a;fill-opacity:1"
       d="m 64.6,563.55041 h -1.1 v 8.8 h 1.2 v -4.9 l 0.1,-1.25 q 0.15,-0.55 0.8,-1.05 0.6,-0.5 1.5,-0.6 v -1.1 q -1.7,-0.05 -2.5,1.4 z"
       id="path192"
       inkscape:connector-curvature="0" />
    <path
       d="M 0,397.85041 Z"
       id="path194"
       inkscape:connector-curvature="0" />
    <path
       style="fill:#00328a;fill-opacity:1"
       d="m 68.8,568.05041 q 0.05,1.9 1.35,3.2 1.3,1.25 3.25,1.3 1.9,-0.05 3.2,-1.35 1.25,-1.3 1.3,-3.25 -0.05,-1.9 -1.35,-3.2 -1.3,-1.25 -3.15,-1.3 -2,0.05 -3.25,1.3 -1.3,1.3 -1.35,3.3 z"
       id="path196"
       inkscape:connector-curvature="0" />
    <path
       style="fill:#ffffff"
       d="m 73.4,564.55041 1.25,0.25 q 0.6,0.3 1.05,0.75 1.05,0.9 1,2.4 -0.05,1.45 -0.95,2.45 -0.9,1 -2.35,1.05 -1.45,-0.05 -2.4,-1 -0.95,-0.95 -1,-2.4 0.05,-1.45 0.95,-2.45 0.95,-1 2.45,-1.05 z"
       id="path198"
       inkscape:connector-curvature="0" />
    <path
       d="M 0,397.85041 Z"
       id="path200"
       inkscape:connector-curvature="0" />
    <path
       style="fill:#00328a;fill-opacity:1"
       d="m 80.45,569.70041 0.6,1 1.85,1.4 1.85,0.4 q 2.25,0.05 3.6,-1.8 v 1.6 h 1.1 v -11.8 h -1.2 v 4.6 q -0.55,-0.9 -1.5,-1.3 l -1.9,-0.4 q -2,0.05 -3.35,1.3 -1.3,1.2 -1.35,3.2 0,1 0.3,1.8 z"
       id="path202"
       inkscape:connector-curvature="0" />
    <path
       style="fill:#ffffff"
       d="m 82.35,565.50041 q 0.95,-0.95 2.4,-1 1.45,0.05 2.45,1 1,0.95 1.05,2.4 -0.05,1.45 -1,2.45 -0.95,1 -2.5,1.05 -1.45,-0.05 -2.4,-1.05 -0.95,-1 -1,-2.45 0.05,-1.45 1,-2.4 z"
       id="path204"
       inkscape:connector-curvature="0" />
    <path
       d="M 0,397.85041 Z"
       id="path206"
       inkscape:connector-curvature="0" />
    <path
       style="fill:#00328a;fill-opacity:1"
       d="m 98.85,563.50041 v 4.7 q 0.05,1.15 -0.6,2.1 -0.8,1.1 -2.1,1.1 l -1.35,-0.3 q -0.65,-0.35 -0.95,-1 l -0.35,-0.9 -0.05,-5.7 h -1.2 l 0.1,6.3 0.5,1.2 q 1.45,1.6 3.1,1.5 l 1.7,-0.35 1.2,-1.15 v 1.3 h 1.1 v -8.8 z"
       id="path208"
       inkscape:connector-curvature="0" />
    <path
       d="M 0,397.85041 Z"
       id="path210"
       inkscape:connector-curvature="0" />
    <path
       style="fill:#00328a;fill-opacity:1"
       d="m 107.25,563.45041 q -2,0.05 -3.35,1.3 -1.4,1.2 -1.45,3.2 0.05,2.05 1.45,3.3 1.35,1.25 3.35,1.3 1.45,0 2.55,-0.7 1.15,-0.7 1.75,-2 h -1.4 q -1.05,1.55 -3,1.6 -1.55,-0.05 -2.5,-1 -0.95,-0.95 -1,-2.5 0.05,-1.45 1.05,-2.4 1,-0.95 2.55,-1 0.9,0 1.65,0.45 l 1.25,1.25 h 1.4 q -0.55,-1.3 -1.75,-2.05 -1.15,-0.75 -2.55,-0.75 z"
       id="path212"
       inkscape:connector-curvature="0" />
    <path
       d="M 0,397.85041 Z"
       id="path214"
       inkscape:connector-curvature="0" />
    <path
       style="fill:#00328a;fill-opacity:1"
       d="m 121.35,566.25041 h 1.4 q -0.55,-1.3 -1.75,-2.05 -1.2,-0.75 -2.65,-0.75 -1.95,0.05 -3.3,1.3 -1.35,1.2 -1.4,3.2 0.05,2.05 1.4,3.3 1.4,1.25 3.4,1.3 1.45,0 2.55,-0.7 1.15,-0.7 1.75,-2 h -1.4 q -1.05,1.55 -3,1.6 -1.55,-0.05 -2.5,-1 -0.95,-0.95 -1,-2.5 0.05,-1.45 1.05,-2.4 1,-0.95 2.55,-1 0.9,0 1.65,0.45 z"
       id="path216"
       inkscape:connector-curvature="0" />
    <path
       d="M 0,397.85041 Z"
       id="path218"
       inkscape:connector-curvature="0" />
    <path
       style="fill:#00328a;fill-opacity:1"
       d="m 125.15,560.50041 v 2 h 1.2 v -2 z"
       id="path220"
       inkscape:connector-curvature="0" />
    <path
       style="fill:#00328a;fill-opacity:1"
       d="m 125.15,563.50041 v 8.8 h 1.2 v -8.8 z"
       id="path222"
       inkscape:connector-curvature="0" />
    <path
       d="M 0,397.85041 Z"
       id="path224"
       inkscape:connector-curvature="0" />
    <path
       style="fill:#ffffff"
       d="m 130.95,565.55041 q 0.95,-1 2.45,-1.05 1.4,0.05 2.3,1 1.05,0.9 1,2.4 -0.05,1.45 -0.95,2.45 -0.9,1 -2.35,1.05 -1.45,-0.05 -2.4,-1 -0.95,-0.95 -1,-2.4 0.05,-1.45 0.95,-2.45 z"
       id="path226"
       inkscape:connector-curvature="0" />
    <path
       style="fill:#00328a;fill-opacity:1"
       d="m 135.2,560.70041 -0.6,-1 -3.1,1.9 0.6,0.9 z"
       id="path230"
       inkscape:connector-curvature="0" />
    <path
       d="M 0,397.85041 Z"
       id="path232"
       inkscape:connector-curvature="0" />
    <path
       style="fill:#00328a;fill-opacity:1"
       d="m 146,563.80041 -1.65,-0.35 q -1.8,0 -2.7,1.4 v -1.3 h -1.2 v 8.8 h 1.2 l 0.05,-5.7 q 0.1,-0.55 0.45,-1 0.85,-1.1 2.1,-1.1 l 1.3,0.3 q 0.6,0.25 1,0.8 0.55,0.9 0.5,2.1 v 4.6 h 1.2 v -4.6 l -0.15,-1.5 -0.65,-1.4 q -0.6,-0.7 -1.45,-1.05 z"
       id="path234"
       inkscape:connector-curvature="0" />
    <path
       d="M 0,397.85041 Z"
       id="path236"
       inkscape:connector-curvature="0" />
    <path
       style="fill:#00328a;fill-opacity:1"
       d="m 39.15,579.65041 -2.9,7 -2.8,-7 h -1.3 l 3.3,8.5 -1.3,3.3 h 1.2 l 5.1,-11.8 z"
       id="path238"
       inkscape:connector-curvature="0" />
    <path
       d="M 0,397.85041 Z"
       id="path240"
       inkscape:connector-curvature="0" />
    <path
       style="fill:#00328a;fill-opacity:1"
       d="m 51.8,579.45041 q -1.9,0.05 -3.2,1.3 -1.25,1.3 -1.3,3.3 0.05,2 1.35,3.3 1.25,1.25 3.25,1.3 1.4,0 2.55,-0.85 1.15,-0.85 1.65,-2.25 h -1.2 l -1.25,1.4 q -0.85,0.5 -1.85,0.5 -1.3,-0.05 -2.3,-0.85 -1,-0.85 -1.1,-2.15 h 8 l -0.2,-1.75 q -0.2,-0.8 -0.8,-1.55 -1.4,-1.7 -3.6,-1.7 z"
       id="path242"
       inkscape:connector-curvature="0" />
    <path
       style="fill:#ffffff"
       d="m 54.05,581.40041 q 0.9,0.8 1.15,1.95 h -6.8 q 0.25,-1.25 1.25,-2 0.95,-0.8 2.25,-0.8 1.25,0.05 2.15,0.85 z"
       id="path244"
       inkscape:connector-curvature="0" />
    <path
       d="M 0,397.85041 Z"
       id="path246"
       inkscape:connector-curvature="0" />
    <path
       style="fill:#00328a;fill-opacity:1"
       d="m 58.8,576.50041 v 11.9 H 60 v -11.9 z"
       id="path248"
       inkscape:connector-curvature="0" />
    <path
       d="M 0,397.85041 Z"
       id="path250"
       inkscape:connector-curvature="0" />
    <path
       style="fill:#00328a;fill-opacity:1"
       d="m 78.8,576.50041 -4.3,10.1 -4.4,-10.1 h -1.8 v 11.9 h 1.2 v -10.6 l 4.5,10.6 h 1 l 4.4,-10.6 v 10.6 h 1.2 v -11.9 z"
       id="path252"
       inkscape:connector-curvature="0" />
    <path
       d="M 0,397.85041 Z"
       id="path254"
       inkscape:connector-curvature="0" />
    <path
       style="fill:#00328a;fill-opacity:1"
       d="m 91.4,581.15041 q -0.7,-0.85 -1.6,-1.25 -0.9,-0.45 -1.9,-0.45 -2,0.05 -3.25,1.3 -1.3,1.3 -1.35,3.3 0.05,2 1.35,3.3 1.25,1.25 3.25,1.3 1.4,0 2.6,-0.85 1.2,-0.85 1.7,-2.25 h -1.3 q -0.4,0.9 -1.25,1.4 -0.85,0.5 -1.85,0.5 -1.25,-0.05 -2.25,-0.85 -1,-0.85 -1.05,-2.15 h 7.9 l -0.2,-1.75 q -0.2,-0.8 -0.8,-1.55 z"
       id="path256"
       inkscape:connector-curvature="0" />
    <path
       style="fill:#ffffff"
       d="m 85.7,581.35041 q 0.9,-0.8 2.2,-0.8 1.25,0.05 2.15,0.85 0.9,0.8 1.15,1.95 h -6.7 q 0.25,-1.25 1.2,-2 z"
       id="path258"
       inkscape:connector-curvature="0" />
    <path
       d="M 0,397.85041 Z"
       id="path260"
       inkscape:connector-curvature="0" />
    <path
       style="fill:#00328a;fill-opacity:1"
       d="m 95.9,580.75041 q -1.35,1.25 -1.4,3.25 0,0.95 0.3,1.7 l 0.7,1.1 q 1.8,1.9 3.7,1.8 2.2,0 3.5,-1.8 v 1.6 h 1.1 v -11.9 h -1.2 v 4.6 q -0.55,-0.85 -1.45,-1.25 l -1.95,-0.45 q -1.95,0.05 -3.3,1.35 z"
       id="path262"
       inkscape:connector-curvature="0" />
    <path
       style="fill:#ffffff"
       d="m 99.2,580.50041 q 1.45,0.05 2.45,1 1,0.95 1.05,2.4 -0.05,1.55 -1.05,2.5 -1,0.95 -2.45,1 -1.45,-0.05 -2.45,-1 -1,-0.95 -1.05,-2.5 0.05,-1.4 1.05,-2.35 1,-1 2.45,-1.05 z"
       id="path264"
       inkscape:connector-curvature="0" />
    <path
       d="M 0,397.85041 Z"
       id="path266"
       inkscape:connector-curvature="0" />
    <path
       style="fill:#00328a;fill-opacity:1"
       d="m 106.65,576.50041 v 2 h 1.2 v -2 z"
       id="path268"
       inkscape:connector-curvature="0" />
    <path
       style="fill:#00328a;fill-opacity:1"
       d="m 106.65,579.60041 v 8.8 h 1.2 v -8.8 z"
       id="path270"
       inkscape:connector-curvature="0" />
    <path
       d="M 0,397.85041 Z"
       id="path272"
       inkscape:connector-curvature="0" />
    <path
       style="fill:#00328a;fill-opacity:1"
       d="m 114.9,579.45041 q -1.95,0.05 -3.25,1.35 -1.3,1.3 -1.35,3.25 0.05,2 1.35,3.3 1.3,1.25 3.25,1.3 2,-0.05 3.3,-1.4 1.25,-1.35 1.3,-3.3 -0.05,-1.85 -1.35,-3.15 -1.3,-1.3 -3.25,-1.35 z"
       id="path274"
       inkscape:connector-curvature="0" />
    <path
       style="fill:#ffffff"
       d="m 114.9,580.55041 q 1.4,0.05 2.3,1 1.15,1.05 1.1,2.4 0,1.45 -0.95,2.45 -0.9,1 -2.45,1.05 -1.45,-0.05 -2.4,-1 -0.95,-0.95 -1,-2.4 0.05,-1.45 1,-2.45 0.95,-1 2.4,-1.05 z"
       id="path276"
       inkscape:connector-curvature="0" />
    <path
       d="M 0,397.85041 Z"
       id="path278"
       inkscape:connector-curvature="0" />
    <path
       style="fill:#00328a;fill-opacity:1"
       d="m 5.1,592.65041 -5.1,11.8 h 1.3 l 1.7,-4 h 5.5 l 1.8,4 h 1.2 l -5,-11.8 z"
       id="path280"
       inkscape:connector-curvature="0" />
    <path
       style="fill:#ffffff"
       d="m 3.5,599.45041 2.3,-5.5 2.3,5.5 z"
       id="path282"
       inkscape:connector-curvature="0" />
    <path
       d="M 0,397.85041 Z"
       id="path284"
       inkscape:connector-curvature="0" />
    <path
       style="fill:#00328a;fill-opacity:1"
       d="m 21.45,595.80041 q -0.8,0.35 -1.25,1.05 l -0.1,0.3 -0.3,-0.3 q -1.1,-1.35 -2.8,-1.4 -1.55,0 -2.4,1.4 v -1.2 h -1.1 v 8.8 h 1.2 l 0.05,-6 0.35,-0.9 q 0.8,-0.9 2,-0.9 l 1.05,0.25 q 0.55,0.3 0.85,0.75 l 0.35,0.85 0.05,5.95 h 1.2 l 0.05,-5.9 q 0.05,-0.5 0.35,-0.9 0.3,-0.45 0.85,-0.75 l 1.05,-0.25 q 1.35,0.05 2,1 0.55,0.95 0.5,1.9 v 4.9 h 1.2 v -5 q 0.1,-1.55 -0.9,-2.6 -1.25,-1.35 -2.7,-1.4 -0.8,0 -1.55,0.35 z"
       id="path286"
       inkscape:connector-curvature="0" />
    <path
       d="M 0,397.85041 Z"
       id="path288"
       inkscape:connector-curvature="0" />
    <path
       style="fill:#00328a;fill-opacity:1"
       d="m 29.45,592.65041 v 11.8 h 1.1 v -1.5 q 0.55,0.85 1.5,1.25 l 2,0.45 1.85,-0.3 1.75,-1.4 0.7,-1.15 0.3,-1.75 q -0.05,-2 -1.4,-3.3 -1.3,-1.25 -3.3,-1.3 -1,0 -1.95,0.45 -0.95,0.5 -1.35,1.45 v -4.7 z"
       id="path290"
       inkscape:connector-curvature="0" />
    <path
       style="fill:#ffffff"
       d="m 37.45,600.05041 q -0.05,1.45 -1,2.45 -0.95,1 -2.4,1.05 -1.45,-0.05 -2.45,-1 -1,-0.95 -1.05,-2.4 -0.1,-1.45 0.9,-2.5 1.1,-0.95 2.5,-1 1.55,0 2.5,0.95 0.95,0.9 1,2.45 z"
       id="path292"
       inkscape:connector-curvature="0" />
    <path
       d="M 0,397.85041 Z"
       id="path294"
       inkscape:connector-curvature="0" />
    <path
       style="fill:#00328a;fill-opacity:1"
       d="m 41.15,592.65041 v 2 h 1.2 v -2 z"
       id="path296"
       inkscape:connector-curvature="0" />
    <path
       style="fill:#00328a;fill-opacity:1"
       d="m 41.15,595.65041 v 8.8 h 1.2 v -8.8 z"
       id="path298"
       inkscape:connector-curvature="0" />
    <path
       d="M 0,397.85041 Z"
       id="path300"
       inkscape:connector-curvature="0" />
    <path
       style="fill:#00328a;fill-opacity:1"
       d="m 53.7,601.65041 h -1.3 q -0.4,0.9 -1.25,1.4 -0.85,0.5 -1.85,0.5 -1.25,-0.05 -2.25,-0.9 -1,-0.9 -1.05,-2.2 h 7.9 l -0.2,-1.7 q -0.2,-0.8 -0.8,-1.6 l -1.55,-1.2 q -0.9,-0.5 -1.95,-0.5 -2,0.05 -3.25,1.35 -1.3,1.3 -1.35,3.25 0.05,2 1.35,3.3 1.25,1.25 3.25,1.3 1.45,-0.05 2.65,-0.85 1.15,-0.85 1.65,-2.15 z"
       id="path302"
       inkscape:connector-curvature="0" />
    <path
       style="fill:#ffffff"
       d="M 52.7,599.45041 H 46 q 0.25,-1.2 1.2,-2 0.9,-0.75 2.2,-0.8 1.25,0.05 2.15,0.8 0.9,0.8 1.15,2 z"
       id="path304"
       inkscape:connector-curvature="0" />
    <path
       d="M 0,397.85041 Z"
       id="path306"
       inkscape:connector-curvature="0" />
    <path
       style="fill:#00328a;fill-opacity:1"
       d="m 56.45,595.65041 v 8.8 h 1.1 v -4.6 l 0.1,-1.1 q 0.05,-0.55 0.4,-1 0.8,-1.1 2.2,-1.1 1.4,0 2.2,1.1 l 0.45,1 0.05,5.7 h 1.2 v -4.6 l -0.15,-1.5 q -0.15,-0.75 -0.65,-1.4 -1.25,-1.45 -3.1,-1.5 -1.75,0.05 -2.7,1.5 v -1.3 z"
       id="path308"
       inkscape:connector-curvature="0" />
    <path
       d="M 0,397.85041 Z"
       id="path310"
       inkscape:connector-curvature="0" />
    <path
       style="fill:#00328a;fill-opacity:1"
       d="m 69.15,595.65041 v -3 h -1.1 v 3 h -1.9 v 1.1 h 1.9 v 7.7 h 1.1 v -7.7 h 2.1 v -1.1 z"
       id="path312"
       inkscape:connector-curvature="0" />
    <path
       d="M 0,397.85041 Z"
       id="path314"
       inkscape:connector-curvature="0" />
    <path
       style="fill:#00328a;fill-opacity:1"
       d="m 81.75,598.75041 -0.85,-1.6 q -0.6,-0.75 -1.5,-1.2 -0.95,-0.5 -2,-0.5 -1.95,0.05 -3.25,1.35 -1.3,1.3 -1.35,3.25 0.05,2 1.35,3.3 1.3,1.25 3.25,1.3 1.45,-0.05 2.65,-0.85 1.15,-0.85 1.65,-2.15 h -1.2 q -0.4,0.9 -1.3,1.4 l -1.9,0.5 q -1.25,-0.05 -2.2,-0.9 -1,-0.9 -1.1,-2.2 h 8 z"
       id="path316"
       inkscape:connector-curvature="0" />
    <path
       style="fill:#ffffff"
       d="M 80.8,599.45041 H 74 q 0.25,-1.2 1.2,-2 0.95,-0.75 2.2,-0.8 1.25,0.05 2.2,0.8 0.95,0.8 1.2,2 z"
       id="path318"
       inkscape:connector-curvature="0" />
    <path
       d="M 0,397.85041 Z"
       id="path320"
       inkscape:connector-curvature="0" />
    <path
       style="fill:#00328a;fill-opacity:1"
       d="m 89.95,592.65041 v 11.8 h 6.1 v -1.1 h -4.9 v -10.7 z"
       id="path322"
       inkscape:connector-curvature="0" />
    <path
       d="M 0,397.85041 Z"
       id="path324"
       inkscape:connector-curvature="0" />
    <path
       style="fill:#00328a;fill-opacity:1"
       d="m 105.7,595.65041 v 1.7 q -0.55,-0.95 -1.5,-1.45 -0.95,-0.45 -2,-0.45 -0.9,0 -1.85,0.45 -0.9,0.4 -1.95,1.45 -0.25,0.25 -0.55,1 -0.3,0.75 -0.35,1.7 l 0.35,1.75 0.55,1.05 q 1.75,1.8 3.9,1.8 l 1.95,-0.45 1.45,-1.35 v 1.6 h 1.1 v -8.8 z"
       id="path326"
       inkscape:connector-curvature="0" />
    <path
       style="fill:#ffffff"
       d="m 105.7,600.15041 q -0.05,1.4 -1,2.35 -1,1 -2.4,1.05 -1.45,-0.05 -2.5,-1 -1.05,-0.95 -1.1,-2.4 0.05,-1.55 1.05,-2.5 1,-0.95 2.45,-1 1.55,0.05 2.5,1 0.95,0.95 1,2.5 z"
       id="path328"
       inkscape:connector-curvature="0" />
    <path
       d="M 0,397.85041 Z"
       id="path330"
       inkscape:connector-curvature="0" />
    <path
       style="fill:#00328a;fill-opacity:1"
       d="m 109.65,592.65041 v 11.8 h 1.1 v -1.5 q 0.55,0.85 1.55,1.25 l 1.95,0.45 1.85,-0.3 1.75,-1.4 0.75,-1.15 q 0.35,-0.75 0.35,-1.75 -0.05,-2 -1.45,-3.3 -1.35,-1.25 -3.35,-1.3 -1,0 -1.9,0.45 -0.9,0.5 -1.4,1.45 v -4.7 z"
       id="path332"
       inkscape:connector-curvature="0" />
    <path
       style="fill:#ffffff"
       d="m 117.75,600.05041 q -0.05,1.45 -1,2.45 -0.95,1 -2.5,1.05 -1.45,-0.05 -2.45,-1 -1,-0.95 -1.05,-2.4 -0.05,-1.45 1,-2.5 0.95,-0.95 2.5,-1 1.45,0 2.45,0.95 1,0.9 1.05,2.45 z"
       id="path334"
       inkscape:connector-curvature="0" />
    <path
       d="M 0,397.85041 Z"
       id="path336"
       inkscape:connector-curvature="0" />
    <path
       style="fill:#ffffff"
       d="m 129,600.05041 q 0,1.45 -0.95,2.45 -0.9,1 -2.45,1.05 -1.45,-0.05 -2.4,-1 -0.95,-0.95 -1,-2.4 0.05,-1.45 1,-2.45 0.95,-1 2.4,-1.05 1.35,0.05 2.4,0.9 1.05,1 1,2.5 z"
       id="path338"
       inkscape:connector-curvature="0" />
    <path
       d="M 0,397.85041 Z"
       id="path342"
       inkscape:connector-curvature="0" />
    <path
       style="fill:#00328a;fill-opacity:1"
       d="m 132.75,595.65041 v 8.8 h 1.2 v -4.9 l 0.1,-1.25 q 0.15,-0.55 0.8,-1.05 0.6,-0.5 1.5,-0.6 v -1.2 l -1.45,0.4 q -0.65,0.35 -1.05,1.1 v -1.3 z"
       id="path344"
       inkscape:connector-curvature="0" />
    <path
       d="M 0,397.85041 Z"
       id="path346"
       inkscape:connector-curvature="0" />
    <path
       style="fill:#00328a;fill-opacity:1"
       d="m 146.1,595.65041 v 1.7 q -0.55,-0.95 -1.45,-1.45 l -1.95,-0.45 q -0.95,0 -1.9,0.45 -0.95,0.4 -1.9,1.45 -0.25,0.25 -0.55,1 -0.3,0.75 -0.35,1.7 0,1 0.3,1.75 l 0.5,1.05 q 1.9,1.8 3.9,1.8 l 1.95,-0.45 q 0.9,-0.45 1.45,-1.35 v 1.6 h 1.1 v -8.8 z"
       id="path348"
       inkscape:connector-curvature="0" />
    <path
       style="fill:#ffffff"
       d="m 146.1,600.15041 q -0.05,1.4 -1,2.35 -1,1 -2.4,1.05 -1.45,-0.05 -2.5,-1 -1.05,-0.95 -1.1,-2.4 0.05,-1.55 1.05,-2.5 1,-0.95 2.55,-1 1.45,0.05 2.4,1 0.95,0.95 1,2.5 z"
       id="path350"
       inkscape:connector-curvature="0" />
    <path
       d="M 0,397.85041 Z"
       id="path352"
       inkscape:connector-curvature="0" />
    <path
       style="fill:#00328a;fill-opacity:1"
       d="m 150.15,592.65041 v 11.8 h 1.2 v -11.8 z"
       id="path354"
       inkscape:connector-curvature="0" />
    <path
       style="fill:#ffffff"
       d="m 132.65,434.45041 h -14.6 l 14.6,-16.7 z"
       id="path10"
       inkscape:connector-curvature="0" />
  </g>
</svg>
